<?xml version="1.0" encoding="utf-8"?>
<!-- Generator: Adobe Illustrator 25.0.0, SVG Export Plug-In . SVG Version: 6.00 Build 0)  -->
<svg version="1.1" id="Capa_1" xmlns="http://www.w3.org/2000/svg" xmlns:xlink="http://www.w3.org/1999/xlink" x="0px" y="0px"
	 viewBox="0 0 177.1 79" style="enable-background:new 0 0 177.1 79;" xml:space="preserve">
<style type="text/css">
	.st0{fill:#F55000;}
</style>
<g id="Grupo_446" transform="translate(-421.009 -442.851)">
	<g id="Grupo_226" transform="translate(479.563 492.702)">
		<path id="Trazado_123" class="st0" d="M8,7.1l1.6,1.4C9.3,9,8.9,9.3,8.5,9.6C8,9.9,7.5,10.2,7,10.4c-1.5,0.5-3.1,0.3-4.5-0.4
			C1.7,9.5,1.1,8.9,0.7,8.1C0.2,7.3,0,6.3,0,5.4c0-0.7,0.1-1.4,0.4-2.1C0.6,2.6,1,2,1.5,1.6c0.5-0.5,1-0.9,1.7-1.1
			C3.8,0.1,4.5,0,5.3,0C6.1,0,7,0.2,7.7,0.5C8.4,0.9,9,1.4,9.5,2L7.9,3.5c-0.3-0.4-0.7-0.8-1.1-1c-0.5-0.3-1-0.4-1.5-0.4
			c-0.6,0-1.1,0.1-1.6,0.4C3.3,2.8,3,3.2,2.8,3.7C2.5,4.2,2.4,4.8,2.4,5.3c0,0.6,0.1,1.1,0.4,1.6c0.5,1,1.5,1.6,2.6,1.6
			c0.4,0,0.8-0.1,1.2-0.2C6.8,8.2,7.1,8,7.4,7.8C7.6,7.6,7.8,7.3,8,7.1z"/>
		<path id="Trazado_124" class="st0" d="M10.8,10.4V0.3h2.3v10.2L10.8,10.4z"/>
		<path id="Trazado_125" class="st0" d="M15,6.6V0.3h2.3v6c0,0.6,0.1,1.1,0.4,1.6c0.4,0.4,0.9,0.7,1.5,0.6c0.6,0.1,1.1-0.2,1.5-0.6
			c0.3-0.5,0.5-1,0.4-1.6v-6h2.3v6.3c0,0.8-0.2,1.5-0.5,2.1c-0.3,0.6-0.9,1.1-1.5,1.5c-0.7,0.4-1.5,0.5-2.3,0.5
			c-0.8,0-1.6-0.2-2.3-0.5c-0.6-0.3-1.1-0.8-1.5-1.5C15.1,8.1,15,7.3,15,6.6z"/>
		<path id="Trazado_126" class="st0" d="M25.4,10.4V0.3h3.8c1,0,1.9,0.2,2.8,0.5c0.8,0.3,1.5,0.9,1.9,1.7c0.5,0.9,0.7,1.9,0.7,2.9
			c0,1-0.2,2-0.7,2.8c-0.5,0.7-1.1,1.3-1.9,1.7c-0.9,0.4-1.8,0.6-2.8,0.6L25.4,10.4z M27.7,8.4h1.4c0.9,0.1,1.7-0.2,2.3-0.8
			C32,7,32.3,6.2,32.3,5.4c0-0.8-0.2-1.6-0.8-2.2c-0.6-0.6-1.5-0.9-2.4-0.8h-1.4L27.7,8.4z"/>
		<path id="Trazado_127" class="st0" d="M34.9,10.4l3.8-10.2h2.5L45,10.4h-2.5l-0.8-2.3h-3.6l-0.8,2.3H34.9z M38.6,6.3h2.5l-1.2-3.8
			L38.6,6.3z"/>
		<path id="Trazado_128" class="st0" d="M46.1,10.4V0.3h3.8c1,0,1.9,0.2,2.8,0.5c0.8,0.3,1.5,0.9,1.9,1.7c0.5,0.9,0.7,1.9,0.7,2.9
			c0,1-0.2,2-0.7,2.8c-0.5,0.7-1.1,1.3-1.9,1.7c-0.9,0.4-1.8,0.6-2.8,0.6L46.1,10.4z M48.4,8.4h1.4c0.9,0.1,1.7-0.2,2.3-0.8
			C52.7,7,53,6.2,52.9,5.4c0-0.8-0.2-1.6-0.8-2.2c-0.6-0.6-1.5-0.9-2.4-0.8h-1.4L48.4,8.4z"/>
	</g>
	<g id="Grupo_227" transform="translate(421.009 442.851)">
		<path id="Trazado_129" class="st0" d="M25.2,69.4c8.8,0,15.9-7.1,15.9-15.9V25.1H9.4v28.3C9.4,62.2,16.5,69.3,25.2,69.4z
			 M24.4,67.7c-2.1-0.1-4.1-0.7-5.9-1.7v-4.2h5.9V67.7z M24.4,60.2h-5.9v-5.9h5.9V60.2z M24.4,52.7h-5.9v-5.9h5.9V52.7z M31.9,66
			c-1.8,1-3.8,1.5-5.9,1.7v-5.9h5.9V66z M31.9,60.2H26v-5.9h5.9V60.2z M31.9,52.7H26v-5.9h5.9V52.7z M33.6,65v-3.2h3.2
			C35.9,63,34.8,64.1,33.6,65L33.6,65z M37.8,60.2h-4.2v-5.9h5.9C39.3,56.4,38.8,58.4,37.8,60.2L37.8,60.2z M39.5,52.7h-5.9v-5.9
			h5.9V52.7z M11,26.8h28.5v5.9c0,1.2-1,2.2-2.2,2.2c-1.2,0-2.2-1-2.2-2.2c0-2.1-1.7-3.8-3.8-3.8c-2.1,0-3.8,1.7-3.8,3.8
			c0,1.2-1,2.2-2.2,2.2s-2.2-1-2.2-2.2c0-2.1-1.7-3.9-3.8-3.9c-2.1,0-3.9,1.7-3.9,3.8c0,0,0,0.1,0,0.1c0,1.2-1,2.2-2.2,2.2
			s-2.2-1-2.2-2.2L11,26.8z M11,35.8c1.7,1.2,4.1,0.8,5.3-0.9c0.5-0.6,0.7-1.4,0.7-2.2c0-1.2,1-2.2,2.2-2.2s2.2,1,2.2,2.2l0,0
			c0,2.1,1.8,3.8,3.9,3.8c2.1,0,3.7-1.7,3.8-3.8c0-1.2,1-2.2,2.2-2.2s2.2,1,2.2,2.2l0,0c0,2.1,1.7,3.8,3.8,3.8
			c0.8,0,1.6-0.2,2.2-0.7v3.5c0,1.2-1,2.2-2.2,2.2c-1.2,0-2.2-1-2.2-2.2c0,0,0,0,0,0c0-2.1-1.7-3.8-3.8-3.8c-2.1,0-3.8,1.7-3.8,3.8
			c0,1.2-1,2.2-2.2,2.2s-2.2-1-2.2-2.2c0-2.1-1.8-3.8-3.9-3.8c-2.1,0-3.7,1.7-3.8,3.8c0,1.2-1,2.2-2.2,2.2s-2.2-1-2.2-2.2L11,35.8z
			 M11,42.5c1.7,1.2,4.1,0.8,5.3-0.9c0.5-0.6,0.7-1.4,0.7-2.2c0-1.2,1-2.2,2.2-2.2s2.2,1,2.2,2.2c0,2.1,1.7,3.9,3.8,3.9
			c2.1,0,3.9-1.7,3.9-3.8c0,0,0-0.1,0-0.1c0-1.2,1-2.2,2.2-2.2s2.2,1,2.2,2.2c0,2.1,1.7,3.8,3.8,3.8c0.8,0,1.6-0.2,2.2-0.7v2.7H11
			V42.5z M11,46.8h5.9v5.9H11V46.8z M11,54.3h5.9v5.9h-4.2C11.7,58.4,11.1,56.4,11,54.3L11,54.3z M16.9,61.8V65
			c-1.2-0.9-2.3-2-3.2-3.2H16.9z"/>
		<path id="Trazado_130" class="st0" d="M49.4,15.8h-6.2l3.1-5l-6.6-0.1l0.5-5.3l-5.6,1.4l-1.3-5.7l-4.8,3.7L25.2,0L22,4.9l-4.8-3.7
			l-1.3,5.7l-5.6-1.4l0.5,5.3l-6.6,0.1l3.1,5H0v38C0,67.7,11.3,79,25.2,79s25.2-11.3,25.2-25.2l0,0v-38H49.4z M7.1,12.4l5.4-0.1
			l-0.4-4.7l5,1.3L18.3,4l4.1,3.2L25.2,3L28,7.2L32.2,4l1.1,4.8l5-1.3l-0.4,4.7l5.4,0.1l-2.1,3.4h-32L7.1,12.4z M48.8,53.8
			c-0.1,13-10.7,23.5-23.7,23.4C12.2,77.1,1.7,66.7,1.6,53.8V17.4h47.2V53.8z"/>
		<path id="Trazado_131" class="st0" d="M23.7,23.9l1.5-1.5l1.5,1.5l1.2-1.2l-1.5-1.5l1.5-1.5l-1.2-1.2l-1.5,1.5l-1.5-1.5l-1.2,1.2
			l1.5,1.5l-1.5,1.5L23.7,23.9z"/>
		<path id="Trazado_132" class="st0" d="M26.7,70.6l-1.5,1.5l-1.5-1.5l-1.2,1.2l1.5,1.5l-1.5,1.5l1.2,1.2l1.5-1.5l1.5,1.5l1.2-1.2
			l-1.5-1.5l1.5-1.5L26.7,70.6z"/>
		<path id="Trazado_133" class="st0" d="M4,48.6l1.5-1.5L7,48.6l1.2-1.2l-1.5-1.5l1.5-1.5L7,43.3l-1.5,1.5L4,43.3l-1.2,1.2l1.5,1.5
			l-1.5,1.5L4,48.6z"/>
		<path id="Trazado_134" class="st0" d="M43.5,48.6l1.5-1.5l1.5,1.5l1.2-1.2l-1.5-1.5l1.5-1.5l-1.2-1.2L45,44.8l-1.5-1.5l-1.2,1.2
			l1.5,1.5l-1.5,1.5L43.5,48.6z"/>
	</g>
	<g id="Grupo_230" transform="translate(479.563 469.69)">
		<g id="Grupo_229">
			<g id="Grupo_228">
				<path id="Trazado_135" class="st0" d="M0,15.9V0.4h5.1c0.9,0,1.7,0.1,2.5,0.4C8.3,1.1,8.8,1.5,9.3,2c0.8,0.8,1.2,1.9,1.2,3
					c0,0.9-0.2,1.8-0.7,2.6C9.4,8.4,8.7,9,7.9,9.4l3.6,6.5H8.2L5,9.8H2.8v6.1L0,15.9z M2.8,7.4h2.4c0.6,0,1.3-0.2,1.7-0.7
					c0.4-0.4,0.6-1,0.6-1.6c0-0.6-0.2-1.2-0.7-1.6C6.4,3.1,5.8,2.8,5.2,2.9H2.8V7.4z"/>
				<path id="Trazado_136" class="st0" d="M13.2,15.9V5h2.7v10.9L13.2,15.9z M13.4,3.3L14.5,0h2.9l-1.8,3.3H13.4z"/>
				<path id="Trazado_137" class="st0" d="M17.9,10.4c0-1,0.2-2,0.7-2.9c0.5-0.9,1.2-1.6,2.1-2.1c1.9-1.1,4.2-1.1,6.1,0
					c0.9,0.5,1.6,1.2,2.1,2.1c1,1.8,1,4,0,5.8c-1.6,2.8-5.2,3.8-8,2.2c-0.9-0.5-1.7-1.3-2.2-2.2C18.2,12.4,17.9,11.4,17.9,10.4z
					 M23.8,13.9c0.6,0,1.2-0.2,1.7-0.5c0.5-0.3,0.8-0.8,1-1.3c0.2-0.5,0.3-1,0.3-1.6c0-0.5-0.1-1.1-0.3-1.6c-0.2-0.5-0.6-1-1-1.3
					c-1-0.7-2.4-0.7-3.5,0c-0.4,0.3-0.8,0.8-1,1.3c-0.2,0.5-0.3,1-0.3,1.6c0,0.5,0.1,1.1,0.3,1.6c0.2,0.5,0.6,1,1,1.3
					C22.6,13.7,23.2,13.9,23.8,13.9L23.8,13.9z"/>
				<path id="Trazado_138" class="st0" d="M46.1,11.3l2,1.8c-0.4,0.5-0.9,1-1.4,1.4c-0.7,0.5-1.4,0.9-2.2,1.3
					c-0.9,0.3-1.8,0.5-2.8,0.5c-1.4,0-2.8-0.3-4.1-1c-1.2-0.7-2.1-1.7-2.8-2.9c-0.7-1.3-1-2.7-1-4.1c0-1.1,0.2-2.2,0.6-3.2
					c0.4-1,0.9-1.9,1.6-2.6c0.7-0.8,1.6-1.4,2.5-1.8c1-0.4,2.1-0.7,3.2-0.6c1.3,0,2.7,0.3,3.8,0.9c1,0.6,1.8,1.3,2.5,2.2L46.1,5
					c-0.5-0.7-1.1-1.3-1.7-1.7c-0.7-0.5-1.6-0.7-2.5-0.7c-0.9,0-1.8,0.2-2.6,0.8c-0.7,0.5-1.3,1.2-1.7,2C37.2,6.3,37,7.2,37,8.1
					c0,0.9,0.2,1.9,0.6,2.7c0.4,0.8,0.9,1.4,1.7,1.9c0.7,0.5,1.6,0.7,2.5,0.7c0.7,0,1.5-0.1,2.2-0.4c0.5-0.2,0.9-0.5,1.3-0.9
					C45.6,11.8,45.9,11.5,46.1,11.3z"/>
				<path id="Trazado_139" class="st0" d="M58.8,12.6l1.5,1.7l-0.4,0.4c-0.3,0.3-0.6,0.5-0.9,0.7c-0.5,0.3-1,0.5-1.5,0.6
					c-0.7,0.2-1.5,0.3-2.2,0.3c-1.1,0-2.1-0.2-3-0.8c-0.9-0.5-1.6-1.2-2-2.1c-0.5-1-0.7-2-0.7-3.1c0-1,0.2-2,0.7-2.9
					c1.5-2.5,4.7-3.5,7.4-2.3c0.7,0.3,1.2,0.8,1.7,1.4c0.4,0.6,0.7,1.3,0.9,2c0.2,0.7,0.3,1.5,0.3,2.3v0.4h-8.1c0,0.5,0.2,1,0.5,1.4
					c0.3,0.4,0.7,0.7,1.2,0.9c0.4,0.2,0.9,0.3,1.4,0.3c0.6,0,1.2-0.1,1.8-0.2c0.4-0.1,0.8-0.3,1.1-0.5C58.4,13,58.6,12.8,58.8,12.6z
					 M52.3,9.3h5.4c0-0.4-0.1-0.8-0.3-1.1c-0.2-0.4-0.5-0.7-0.8-0.9c-0.4-0.3-0.9-0.4-1.4-0.4c-0.5,0-1.1,0.1-1.5,0.4
					c-0.4,0.2-0.7,0.5-0.9,0.9C52.4,8.5,52.3,8.9,52.3,9.3L52.3,9.3z"/>
				<path id="Trazado_140" class="st0" d="M62.5,15.5V0.4h2.7v5.4c0.3-0.3,0.7-0.5,1.1-0.6c1.5-0.6,3.2-0.4,4.6,0.4
					c0.7,0.5,1.3,1.2,1.7,2c0.4,0.9,0.6,1.8,0.6,2.8c0,1-0.2,2.1-0.8,3c-0.5,0.9-1.2,1.6-2.1,2.2c-1,0.6-2.1,0.8-3.3,0.8
					c-0.9,0-1.8-0.1-2.6-0.2C63.7,15.9,63.1,15.8,62.5,15.5z M65.2,9.5v4.1c0.2,0.1,0.4,0.1,0.7,0.2c0.4,0.1,0.7,0.1,1.1,0.1
					c0.7,0,1.3-0.2,1.9-0.5c0.5-0.3,0.9-0.8,1.2-1.3c0.3-0.5,0.4-1.1,0.4-1.7c0-0.5-0.1-1.1-0.3-1.6c-0.2-0.5-0.5-0.9-0.9-1.2
					c-0.4-0.3-1-0.5-1.5-0.5c-0.7,0-1.4,0.2-1.9,0.6C65.4,8.3,65.2,8.9,65.2,9.5L65.2,9.5z"/>
				<path id="Trazado_141" class="st0" d="M81.7,15.9l-0.1-1c-0.4,0.4-0.8,0.7-1.4,1c-0.6,0.3-1.3,0.4-2,0.4c-0.6,0-1.2-0.1-1.8-0.4
					c-0.6-0.2-1.1-0.6-1.4-1.2c-0.4-0.6-0.6-1.3-0.6-2c-0.1-1.1,0.4-2.2,1.3-2.9c1-0.7,2.2-1.1,3.5-1c0.3,0,0.6,0,0.9,0
					s0.8,0,1.4,0.1V8.6c0-0.5-0.2-1-0.7-1.3c-0.5-0.3-1.1-0.5-1.7-0.5c-0.6,0-1.3,0.1-1.9,0.3c-0.4,0.2-0.8,0.4-1.2,0.7L75,6
					c0.3-0.2,0.7-0.5,1-0.6c0.5-0.2,1-0.4,1.5-0.5c0.7-0.2,1.5-0.2,2.2-0.2c1.2-0.1,2.4,0.3,3.4,1.1c0.8,0.7,1.3,1.8,1.3,2.8v7.3
					L81.7,15.9z M81.7,12V11c-0.4,0-0.7-0.1-1.2-0.1s-0.7,0-1,0c-0.7-0.1-1.3,0.1-1.9,0.5c-0.3,0.3-0.5,0.7-0.5,1.2
					c0,0.4,0.2,0.8,0.5,1.1c0.4,0.3,1,0.4,1.5,0.4c0.8,0,1.6-0.4,2.2-1C81.5,12.8,81.7,12.4,81.7,12L81.7,12z"/>
				<path id="Trazado_142" class="st0" d="M86.5,15.9V0.4h2.7v15.5H86.5z"/>
				<path id="Trazado_143" class="st0" d="M91.6,15.9V0.4h2.7v15.5H91.6z"/>
				<path id="Trazado_144" class="st0" d="M96.1,10.4c0-1,0.2-2,0.7-2.9c0.5-0.9,1.2-1.6,2.1-2.1c1.9-1.1,4.2-1.1,6.1,0
					c0.9,0.5,1.6,1.2,2.1,2.1c1,1.8,1,4,0,5.8c-1.6,2.8-5.2,3.8-8,2.2c-0.9-0.5-1.7-1.3-2.2-2.2C96.4,12.4,96.1,11.4,96.1,10.4z
					 M102,13.9c0.6,0,1.2-0.2,1.7-0.5c0.5-0.3,0.8-0.8,1-1.3c0.2-0.5,0.3-1,0.3-1.6c0-0.5-0.1-1.1-0.3-1.6c-0.2-0.5-0.6-1-1-1.3
					c-1-0.7-2.4-0.7-3.5,0c-0.4,0.3-0.8,0.8-1,1.3c-0.2,0.5-0.3,1-0.3,1.6c0,0.5,0.1,1.1,0.3,1.6c0.2,0.5,0.6,1,1,1.3
					C100.8,13.7,101.4,13.9,102,13.9L102,13.9z"/>
				<path id="Trazado_145" class="st0" d="M109.1,14.6l1.7-1.8c0.4,0.4,0.8,0.7,1.3,0.9c0.6,0.2,1.2,0.3,1.8,0.3
					c0.5,0,1-0.1,1.4-0.2c0.3-0.1,0.5-0.4,0.5-0.8c0-0.2-0.1-0.4-0.2-0.6c-0.2-0.2-0.5-0.4-0.8-0.5c-0.6-0.2-1.2-0.4-1.8-0.5
					c-0.5-0.1-1-0.3-1.5-0.6c-0.5-0.2-1-0.6-1.4-1.1c-0.4-0.5-0.6-1.1-0.6-1.7c0-0.7,0.2-1.3,0.7-1.9c0.5-0.5,1-0.9,1.7-1.2
					c0.7-0.3,1.4-0.4,2.1-0.4c0.8,0,1.7,0.1,2.5,0.3c0.7,0.2,1.3,0.5,1.8,0.9l-1.4,1.9c-0.4-0.3-0.8-0.5-1.2-0.6
					c-0.5-0.2-1.1-0.3-1.7-0.3c-0.5,0-0.9,0.1-1.3,0.3c-0.2,0.2-0.4,0.4-0.4,0.7c0,0.3,0.2,0.6,0.6,0.8c0.6,0.3,1.3,0.5,2,0.6
					c1,0.2,1.9,0.6,2.6,1.2c0.7,0.6,1.1,1.5,1,2.4c0,0.7-0.2,1.3-0.6,1.8c-0.5,0.5-1,1-1.7,1.2c-0.7,0.3-1.5,0.4-2.3,0.4
					c-0.9,0-1.9-0.1-2.8-0.4C110.3,15.6,109.6,15.2,109.1,14.6z"/>
			</g>
		</g>
	</g>
</g>
</svg>
